<svg xmlns="http://www.w3.org/2000/svg" width="29" height="26" viewBox="0 0 29 26" fill="none">
  <g clip-path="url(#clip0_72_170)">
    <path d="M9.05507 25.2639C8.49914 24.9276 8.00643 24.512 7.59588 24.0332C7.14428 23.5389 6.72585 23.0204 6.34288 22.4803C5.44418 21.2831 4.73939 19.9746 4.25015 18.595C3.66242 16.9925 3.37781 15.4564 3.37781 13.954C3.37781 12.2762 3.77697 10.8115 4.55767 9.58073C5.13639 8.61876 5.98726 7.81488 7.02225 7.25225C8.02527 6.68573 9.17776 6.3757 10.3583 6.35483C10.7716 6.35483 11.2165 6.40931 11.6888 6.51348C12.0281 6.60082 12.4413 6.73864 12.9462 6.91011C13.5886 7.13526 13.9419 7.27308 14.0618 7.30673C14.438 7.43173 14.7544 7.48622 15.0028 7.48622C15.1914 7.48622 15.4575 7.43173 15.7598 7.3484C15.9298 7.29391 16.2506 7.19776 16.7096 7.01908C17.1643 6.86844 17.5221 6.73944 17.8067 6.64328C18.2428 6.5263 18.6649 6.41813 19.0412 6.36364C19.4872 6.2997 19.9399 6.28276 20.3902 6.31316C21.1706 6.35954 21.9392 6.50992 22.6715 6.75947C23.869 7.19776 24.8374 7.88204 25.5582 8.85478C25.2535 9.02553 24.9676 9.22248 24.7043 9.44291C24.1312 9.90491 23.6431 10.4473 23.2584 11.0495C22.7555 11.8724 22.4948 12.7995 22.5014 13.7409C22.5199 14.8971 22.846 15.9155 23.4883 16.7961C23.9606 17.4488 24.5744 18.0069 25.2921 18.4363C25.6595 18.6615 25.9758 18.8161 26.2789 18.9203C26.1371 19.3209 25.9855 19.7087 25.8066 20.0934C25.401 20.9558 24.9093 21.7827 24.3378 22.5637C23.8285 23.2359 23.4293 23.7367 23.1262 24.07C22.6539 24.5789 22.1992 24.9675 21.7401 25.2383C21.2352 25.5428 20.6387 25.7054 20.0325 25.7054C19.6219 25.7198 19.2114 25.6746 18.8165 25.5716C18.4772 25.4675 18.1415 25.3545 17.8111 25.2255C17.4675 25.082 17.1133 24.9607 16.751 24.8625C15.8555 24.6533 14.9166 24.652 14.0204 24.8585C13.6529 24.9546 13.2996 25.0668 12.9506 25.2046C12.4598 25.3921 12.1338 25.5179 11.9452 25.5716C11.569 25.6718 11.1786 25.7343 10.7839 25.7551C10.1733 25.7551 9.60403 25.5965 9.04009 25.2752L9.05507 25.2639ZM17.1088 5.54074C16.3105 5.90371 15.5483 6.05836 14.7914 6.00788C14.6724 5.31478 14.7914 4.60566 15.1077 3.82923C15.377 3.17145 15.7749 2.56338 16.2823 2.03439C16.818 1.47753 17.4681 1.02109 18.1961 0.690669C18.9716 0.327695 19.7108 0.131385 20.4175 0.102539C20.5092 0.828487 20.4175 1.54242 20.1241 2.31404C19.8526 2.99614 19.4554 3.63126 18.9495 4.19221C18.4332 4.74983 17.7996 5.20804 17.0859 5.53994L17.1088 5.54074Z" fill="black"/>
  </g>
  <defs>
    <clipPath id="clip0_72_170">
      <rect width="28.1969" height="25.6406" fill="white" transform="translate(0.738403 0.102539)"/>
    </clipPath>
  </defs>
</svg>