<svg xmlns="http://www.w3.org/2000/svg" width="23" height="23" viewBox="0 0 23 23" fill="none">
  <path d="M4.21261 13.1107C4.97822 9.43412 8.17877 6.82182 11.779 6.82182C15.378 6.82182 18.5786 9.43412 19.3453 13.1107C19.3757 13.2565 19.4628 13.3844 19.5874 13.4661C19.712 13.5478 19.864 13.5766 20.0099 13.5462C20.1558 13.5159 20.2836 13.4288 20.3653 13.3041C20.447 13.1795 20.4758 13.0275 20.4455 12.8816C19.5732 8.69994 15.9247 5.69922 11.779 5.69922C7.63318 5.69922 3.98472 8.69994 3.11246 12.8816C3.08209 13.0275 3.11092 13.1795 3.1926 13.3041C3.27429 13.4288 3.40214 13.5159 3.54803 13.5462C3.69392 13.5766 3.84589 13.5478 3.97053 13.4661C4.09516 13.3844 4.18224 13.2565 4.21261 13.1107ZM11.7677 9.06703C12.8098 9.06703 13.8092 9.48099 14.546 10.2178C15.2829 10.9547 15.6969 11.9541 15.6969 12.9961C15.6969 14.0382 15.2829 15.0376 14.546 15.7745C13.8092 16.5113 12.8098 16.9253 11.7677 16.9253C10.7257 16.9253 9.72629 16.5113 8.98943 15.7745C8.25258 15.0376 7.83862 14.0382 7.83862 12.9961C7.83862 11.9541 8.25258 10.9547 8.98943 10.2178C9.72629 9.48099 10.7257 9.06703 11.7677 9.06703Z" fill="#404040"/>
</svg>