<svg xmlns="http://www.w3.org/2000/svg" width="29" height="26" viewBox="0 0 29 26" fill="none">
  <path d="M7.15334 15.3539L6.26107 18.3829L2.99986 18.4456C2.02523 16.8018 1.47241 14.921 1.47241 12.9224C1.47241 10.9898 1.98929 9.16726 2.90549 7.5625H2.90619L5.80958 8.04654L7.08145 10.6709C6.81525 11.3766 6.67016 12.1341 6.67016 12.9224C6.67026 13.778 6.84068 14.5977 7.15334 15.3539Z" fill="#FBBB00"/>
  <path d="M26.8823 10.7451C27.0295 11.4501 27.1063 12.1782 27.1063 12.9224C27.1063 13.7568 27.0098 14.5707 26.826 15.3558C26.2021 18.0275 24.5718 20.3603 22.3134 22.0112L22.3127 22.0106L18.6557 21.8409L18.1382 18.9028C19.6367 18.1037 20.8078 16.853 21.4248 15.3558H14.5713V10.7451H21.5247H26.8823Z" fill="#518EF8"/>
  <path d="M22.3121 22.0102L22.3128 22.0108C20.1164 23.6162 17.3262 24.5768 14.2889 24.5768C9.40801 24.5768 5.16441 22.096 2.99963 18.4452L7.15311 15.3535C8.23548 17.9803 11.0221 19.8502 14.2889 19.8502C15.6931 19.8502 17.0086 19.505 18.1375 18.9024L22.3121 22.0102Z" fill="#28B446"/>
  <path d="M22.4702 3.95073L18.3181 7.0418C17.1499 6.37775 15.7689 5.99414 14.2893 5.99414C10.9485 5.99414 8.10979 7.94983 7.08165 10.6708L2.90634 7.56244H2.90564C5.03873 3.82267 9.33585 1.26758 14.2893 1.26758C17.3991 1.26758 20.2505 2.2749 22.4702 3.95073Z" fill="#F14336"/>
</svg>